# xmcd CD database file
#
# Track frame offsets:
#	150
#	12752
#	25425
#	41580
#	52337
#	67840
#	81552
#	97490
#	113417
#	128110
#	148317
#	160752
#	175137
#	185210
#	200217
#	213197
#	227682
#	242577
#
# Disc length: 3367 seconds
#
# Revision: 2
# Processed by: cddbd v1.4b41PL1 Copyright (c) Steve Scherf et al.
# Submitted via: Feurio! 1.50.2ﬂ - http://www.feurio.com
#
DISCID=0b0d2512
DTITLE=Various Artist - Pretty Pianos
DYEAR=1900
DGENRE=
TTITLE0=Rossini - Piano Firework
TTITLE1=Mozart - Swing Alla Turca
TTITLE2=Lortzing - Dancing Clogs
TTITLE3=Bach - Pretty Pianos
TTITLE4=Bizet - Gipsy Round
TTITLE5=Beethoven - Rondo Piano
TTITLE6=Rossini - Funny Opera
TTITLE7=Monti - Puszta Sound
TTITLE8=Chopin - Joh. Strauﬂ - Ornaments Of Waltz
TTITLE9=Chopin - Autumn Fantasy
TTITLE10=Haydn - Merry Concert
TTITLE11=Bizet - Bernstein - Free Performance
TTITLE12=Weber - Piano Mobile
TTITLE13=Trad. - Mexican Dance
TTITLE14=Smetana - Romantic Moldau
TTITLE15=Joh. Strauﬂ - Operetta Miniature
TTITLE16=Rachmaninov - Virtuose Prelude
TTITLE17=Khachaturian - Armenian Dance For Two Pianos
EXTD=
EXTT0=
EXTT1=
EXTT2=
EXTT3=
EXTT4=
EXTT5=
EXTT6=
EXTT7=
EXTT8=
EXTT9=
EXTT10=
EXTT11=
EXTT12=
EXTT13=
EXTT14=
EXTT15=
EXTT16=
EXTT17=
PLAYORDER=
